<svg width="143" height="24" viewBox="0 0 143 24" fill="none" xmlns="http://www.w3.org/2000/svg">
<g clip-path="url(#clip0_2156_223)">
<path d="M5.60419 0.521557L5.80019 0.401557H11.5952C11.703 0.394066 11.8107 0.416838 11.9063 0.467306C12.0018 0.517773 12.0814 0.593929 12.136 0.687188C12.1905 0.780446 12.218 0.887099 12.2152 0.99512C12.2124 1.10314 12.1795 1.20824 12.1202 1.29856L7.98719 16.6486C7.957 16.7232 7.94491 16.8039 7.95189 16.884C7.95887 16.9642 7.98473 17.0416 8.02735 17.1099C8.06997 17.1782 8.12815 17.2354 8.19712 17.2769C8.26609 17.3183 8.3439 17.3429 8.42419 17.3486H19.5102C19.9252 17.2826 20.3402 17.8086 20.0802 18.1786L19.2272 21.3286C19.1612 21.6566 18.7902 21.8316 18.4842 21.7656H0.575187C0.247187 21.7876 -0.102813 21.4596 0.0281874 21.1096L5.23319 1.60156C5.36319 1.25156 5.33319 0.814557 5.60519 0.531557L5.60419 0.521557ZM26.7942 1.26456C26.8227 1.04104 26.9274 0.834177 27.0906 0.678809C27.2538 0.523441 27.4655 0.429059 27.6902 0.411557H44.5702C45.2482 0.411557 45.3702 1.28656 44.9862 1.72356C44.1862 2.64156 43.4992 3.66956 42.8862 4.71956L42.6892 4.81956H33.1792C32.8512 4.75356 32.5012 4.94956 32.4142 5.27956L31.6712 8.14456C31.5842 8.47256 31.9552 8.82256 32.2412 8.84456H40.5942C41.0092 8.75756 41.4912 8.99756 41.5342 9.47856L40.6592 12.7366C40.5932 13.1086 40.1562 13.2616 39.8292 13.2166C36.7692 13.2166 33.6842 13.1946 30.6232 13.2386C30.5197 13.3095 30.4177 13.3825 30.3172 13.4576C29.9232 14.5946 29.6612 15.7756 29.3552 16.9126L29.7702 17.4376H41.4002C41.7502 17.3716 42.0562 17.6576 42.1652 17.9626L41.2682 21.2866C41.2022 21.6146 40.8742 21.8116 40.5462 21.7896C34.2922 21.7676 28.0162 21.8336 21.7622 21.7676C21.6752 21.6806 21.5002 21.4836 21.4122 21.3956L26.7922 1.25556L26.7942 1.26456ZM73.8542 1.04656C73.8931 0.862685 73.9955 0.698376 74.1434 0.582448C74.2913 0.46652 74.4754 0.406373 74.6632 0.412557L79.3862 0.434557L79.7362 0.696557L85.7492 12.0236L85.9692 11.8936L89.1152 0.401557L95.1952 0.445557C95.2612 0.532557 95.4152 0.685557 95.4792 0.773557L90.0992 21.0436C90.0332 21.4806 89.6192 21.8086 89.1812 21.7436C87.7162 21.7216 86.2512 21.7436 84.7862 21.7436C84.3702 21.7216 84.1742 21.2636 83.9992 20.9566L78.0502 10.5816L77.8102 10.8016L74.9232 21.6476L74.6612 21.7476C72.6492 21.7256 70.6162 21.7476 68.6042 21.7036C68.5084 21.5816 68.4063 21.4647 68.2982 21.3536C70.7912 18.1836 72.0582 14.0066 71.4482 10.0036L73.8532 1.03756L73.8542 1.04656ZM121.894 0.521557C115.224 0.565557 108.554 0.434557 101.886 0.587557C100.486 0.871557 99.2842 2.00756 98.9992 3.43056L96.2872 14.7356C96.0472 15.9606 97.1172 17.1626 98.3642 17.1196H117.651C119.335 17.1636 120.931 15.8196 121.237 14.1896L123.937 2.90656C124.2 1.70156 123.12 0.477557 121.894 0.521557ZM110.064 7.10356C110.086 8.30656 109.08 9.22356 108.031 9.61856L108.949 12.6146H106.631L105.909 9.88156C105.449 9.88156 104.991 9.85956 104.532 9.88156L103.876 12.6146H101.711L103.526 5.07056C105.026 5.07056 106.566 5.02656 108.074 5.09256C109.102 5.15856 110.152 5.98956 110.074 7.10456L110.064 7.10356ZM117.871 10.5036C117.499 11.7286 116.231 12.4056 115.028 12.5806C113.804 12.7556 112.448 12.7106 111.398 11.9806C110.742 11.5436 110.392 10.7126 110.598 9.94656L111.778 5.11356C112.456 4.93856 113.243 5.09156 113.965 5.04756C113.593 6.62156 113.177 8.17456 112.785 9.72756C112.685 10.0996 112.719 10.5806 113.091 10.8206C113.987 11.3906 115.453 11.0406 115.791 9.94556C116.228 8.32756 116.591 6.66556 117.015 5.04756C117.737 5.02556 118.48 5.04756 119.202 5.04756L117.88 10.5016L117.871 10.5036ZM107.484 6.69956C106.762 6.56956 106.04 6.65556 105.319 6.63356L104.903 8.27356C105.647 8.31756 106.456 8.37356 107.199 8.20756C107.877 8.10756 108.315 6.93956 107.484 6.70756V6.69956ZM55.1332 0.105557C56.3132 -0.0694433 57.5382 0.00555673 58.7192 0.149557L61.6712 5.59456L67.4212 6.64456L67.4652 6.66656C68.0122 7.80356 68.4052 9.00656 68.5802 10.2746L64.6002 14.5816L65.2562 20.3986C64.4032 21.3386 63.3322 22.0826 62.2162 22.6726L56.7932 20.1146L51.3262 22.7606C50.2701 22.207 49.2922 21.5156 48.4182 20.7046L49.1182 14.5816L44.8542 10.0986C45.0072 8.93856 45.4012 7.82456 45.9042 6.75256L52.1362 5.52756L55.1332 0.105557Z" fill="white"/>
<path d="M45.9288 6.73047C47.6008 3.16647 51.1988 0.520469 55.1128 0.105469L52.1388 5.50547C50.1048 5.96547 48.0058 6.35847 45.9388 6.73047H45.9288ZM58.7208 0.126469C62.4378 0.726469 65.8708 3.18647 67.4238 6.62147L61.6738 5.57147C60.6448 3.80047 59.7268 1.94047 58.7208 0.126469ZM53.3408 7.54047C55.5058 7.41047 57.7358 7.54047 59.9228 7.47447L60.0528 7.57447L62.0868 13.7195C60.4028 15.1395 58.4788 16.3655 56.7068 17.7215L51.3268 13.7195L53.3408 7.52947V7.54047ZM44.9008 10.0765L49.1648 14.5595L48.4648 20.6825C45.5998 18.0365 44.1788 13.9015 44.9008 10.0765ZM64.6248 14.5605L68.6048 10.2525C69.2048 13.8825 67.9488 17.8185 65.2808 20.3775C65.1808 18.4315 64.8208 16.5075 64.6248 14.5605ZM51.3288 22.7155L56.7958 20.0695L62.2188 22.6275C58.9168 24.4425 54.6748 24.4425 51.3188 22.7145L51.3288 22.7155Z" fill="#D6161B"/>
</g>
<path d="M99.0675 1.41556C99.3245 0.574495 100.101 0 100.98 0H139.798C141.142 0 142.103 1.29912 141.71 2.58444L137.433 16.5844C137.176 17.4255 136.399 18 135.52 18H96.7024C95.3584 18 94.397 16.7009 94.7897 15.4156L99.0675 1.41556Z" fill="white"/>
<path d="M104.556 13.3162C104.036 13.3162 103.503 13.2946 102.957 13.2512C102.411 13.2079 101.917 13.1386 101.475 13.0432L103.555 4.33322C104.049 4.23789 104.565 4.17289 105.102 4.13822C105.648 4.10355 106.146 4.08622 106.597 4.08622C107.117 4.08622 107.563 4.14255 107.936 4.25522C108.317 4.35922 108.625 4.50222 108.859 4.68422C109.102 4.86622 109.279 5.08289 109.392 5.33422C109.513 5.57689 109.574 5.83689 109.574 6.11422C109.574 6.30489 109.552 6.50422 109.509 6.71222C109.474 6.92022 109.396 7.12822 109.275 7.33622C109.162 7.53555 109.002 7.72622 108.794 7.90822C108.595 8.09022 108.33 8.25489 108.001 8.40222C108.391 8.57555 108.677 8.81389 108.859 9.11722C109.041 9.41189 109.132 9.74122 109.132 10.1052C109.132 10.5212 109.05 10.9242 108.885 11.3142C108.72 11.6956 108.456 12.0379 108.092 12.3412C107.728 12.6359 107.256 12.8742 106.675 13.0562C106.094 13.2296 105.388 13.3162 104.556 13.3162ZM104.374 9.26022L103.815 11.6002C103.954 11.6262 104.127 11.6479 104.335 11.6652C104.552 11.6739 104.751 11.6782 104.933 11.6782C105.193 11.6782 105.449 11.6609 105.7 11.6262C105.96 11.5829 106.19 11.5092 106.389 11.4052C106.597 11.3012 106.766 11.1582 106.896 10.9762C107.026 10.7942 107.091 10.5602 107.091 10.2742C107.091 10.1529 107.065 10.0316 107.013 9.91022C106.97 9.78889 106.896 9.68055 106.792 9.58522C106.688 9.48989 106.549 9.41189 106.376 9.35122C106.211 9.29055 106.012 9.26022 105.778 9.26022H104.374ZM104.751 7.73922H106.025C106.545 7.73922 106.931 7.62655 107.182 7.40122C107.442 7.17589 107.572 6.90722 107.572 6.59522C107.572 6.43055 107.533 6.29189 107.455 6.17922C107.386 6.05789 107.29 5.96255 107.169 5.89322C107.048 5.82388 106.909 5.77622 106.753 5.75022C106.597 5.71555 106.437 5.69822 106.272 5.69822C106.09 5.69822 105.895 5.70689 105.687 5.72422C105.479 5.73289 105.323 5.74589 105.219 5.76322L104.751 7.73922ZM116.454 11.4832L116.038 13.1992H110.032L112.19 4.19022H114.218L112.463 11.4832H116.454ZM122.12 5.72422C121.721 5.72422 121.349 5.82822 121.002 6.03622C120.664 6.24422 120.365 6.52155 120.105 6.86822C119.854 7.21489 119.654 7.61355 119.507 8.06422C119.368 8.51489 119.299 8.97855 119.299 9.45522C119.299 10.1052 119.433 10.6339 119.702 11.0412C119.979 11.4399 120.426 11.6392 121.041 11.6392C121.44 11.6392 121.808 11.5352 122.146 11.3272C122.493 11.1192 122.792 10.8419 123.043 10.4952C123.303 10.1486 123.502 9.75422 123.641 9.31222C123.788 8.86155 123.862 8.39355 123.862 7.90822C123.862 7.25822 123.723 6.73389 123.446 6.33522C123.177 5.92789 122.735 5.72422 122.12 5.72422ZM120.833 13.3812C120.304 13.3812 119.819 13.2946 119.377 13.1212C118.935 12.9479 118.554 12.7009 118.233 12.3802C117.912 12.0509 117.661 11.6522 117.479 11.1842C117.306 10.7162 117.219 10.1876 117.219 9.59822C117.219 8.92222 117.336 8.25055 117.57 7.58322C117.804 6.91589 118.138 6.31789 118.571 5.78922C119.013 5.25188 119.55 4.81855 120.183 4.48922C120.816 4.15122 121.531 3.98222 122.328 3.98222C122.857 3.98222 123.342 4.06888 123.784 4.24222C124.226 4.41555 124.607 4.66688 124.928 4.99622C125.249 5.31688 125.496 5.71122 125.669 6.17922C125.851 6.64722 125.942 7.17589 125.942 7.76522C125.942 8.44122 125.825 9.11722 125.591 9.79322C125.366 10.4606 125.032 11.0629 124.59 11.6002C124.157 12.1289 123.624 12.5579 122.991 12.8872C122.358 13.2166 121.639 13.3812 120.833 13.3812ZM131.036 11.6392C131.209 11.6392 131.365 11.6349 131.504 11.6262C131.643 11.6089 131.768 11.5916 131.881 11.5742L132.635 8.44122H134.663L133.571 12.9522C133.328 13.0476 132.977 13.1386 132.518 13.2252C132.059 13.3206 131.474 13.3682 130.763 13.3682C130.156 13.3682 129.619 13.2816 129.151 13.1082C128.692 12.9262 128.306 12.6706 127.994 12.3412C127.682 12.0119 127.448 11.6132 127.292 11.1452C127.136 10.6772 127.058 10.1486 127.058 9.55922C127.058 8.88322 127.175 8.21155 127.409 7.54422C127.652 6.87689 128.007 6.28322 128.475 5.76322C128.943 5.23455 129.524 4.80555 130.217 4.47622C130.91 4.14688 131.708 3.98222 132.609 3.98222C133.025 3.98222 133.463 4.04288 133.922 4.16422C134.39 4.28555 134.81 4.46755 135.183 4.71022L134.455 6.28322C134.152 6.09255 133.827 5.94955 133.48 5.85422C133.142 5.75889 132.808 5.71122 132.479 5.71122C131.95 5.71122 131.478 5.81088 131.062 6.01022C130.655 6.20955 130.308 6.48255 130.022 6.82922C129.736 7.16722 129.519 7.56155 129.372 8.01222C129.225 8.46289 129.151 8.93955 129.151 9.44222C129.151 10.2049 129.307 10.7639 129.619 11.1192C129.94 11.4659 130.412 11.6392 131.036 11.6392Z" fill="#0D0D0D"/>
<defs>
<clipPath id="clip0_2156_223">
<rect width="124" height="24" fill="white"/>
</clipPath>
</defs>
</svg>
